<svg xmlns="http://www.w3.org/2000/svg" viewBox="0 0 68 27">
  <defs/>
  <path fill="#EF1B1B" fill-rule="nonzero" d="M17.152 23.606L.166 15.17v-4.028l16.986-8.436v4.94L5.828 13.118l11.324 5.51v4.978zm15.656 2.28c-.912.266-1.786.38-3.306.38-3.99 0-6.764-1.444-6.764-6.194v-8.018h-2.47V7.38h2.47V1.832l5.7-.912v6.46h3.534l.722 4.674h-4.256v7.106c0 1.482.76 2.204 2.28 2.204.494 0 .988-.076 1.406-.19l.684 4.712zm14.706-13.034c-2.774.19-4.864 1.292-6.27 2.812V26h-5.738V7.38h5.016l.608 3.686C42.27 8.938 43.828 7.19 46.564 7l.95 5.852zm19.912 2.318L50.44 23.606v-4.978l11.324-5.434-11.324-5.51V2.706l16.986 8.436v4.028z"/>
</svg>
